solid OpenSCAD_Model
  facet normal -1 0 0
    outer loop
      vertex -63.88 -42.74 -10.2545
      vertex -63.88 42.74 10.2545
      vertex -63.88 42.74 -10.2545
    endloop
  endfacet
  facet normal -1 -0 0
    outer loop
      vertex -63.88 42.74 10.2545
      vertex -63.88 -42.74 -10.2545
      vertex -63.88 -42.74 10.2545
    endloop
  endfacet
  facet normal 0 0 1
    outer loop
      vertex 63.88 42.74 10.2545
      vertex 61.505 40.365 10.2545
      vertex 63.88 -42.74 10.2545
    endloop
  endfacet
  facet normal 0 0 1
    outer loop
      vertex 63.88 42.74 10.2545
      vertex -61.505 40.365 10.2545
      vertex 61.505 40.365 10.2545
    endloop
  endfacet
  facet normal 0 0 1
    outer loop
      vertex -61.505 40.365 10.2545
      vertex -63.88 42.74 10.2545
      vertex -61.505 -40.365 10.2545
    endloop
  endfacet
  facet normal -0 0 1
    outer loop
      vertex -63.88 42.74 10.2545
      vertex -61.505 40.365 10.2545
      vertex 63.88 42.74 10.2545
    endloop
  endfacet
  facet normal -0 0 1
    outer loop
      vertex 61.505 -40.365 10.2545
      vertex 63.88 -42.74 10.2545
      vertex 61.505 40.365 10.2545
    endloop
  endfacet
  facet normal -0 0 1
    outer loop
      vertex -61.505 -40.365 10.2545
      vertex 63.88 -42.74 10.2545
      vertex 61.505 -40.365 10.2545
    endloop
  endfacet
  facet normal 0 0 1
    outer loop
      vertex -61.505 -40.365 10.2545
      vertex -63.88 -42.74 10.2545
      vertex 63.88 -42.74 10.2545
    endloop
  endfacet
  facet normal 0 0 1
    outer loop
      vertex -63.88 -42.74 10.2545
      vertex -61.505 -40.365 10.2545
      vertex -63.88 42.74 10.2545
    endloop
  endfacet
  facet normal 1 -0 0
    outer loop
      vertex 63.88 -42.74 10.2545
      vertex 63.88 42.74 -10.2545
      vertex 63.88 42.74 10.2545
    endloop
  endfacet
  facet normal 1 0 0
    outer loop
      vertex 63.88 42.74 -10.2545
      vertex 63.88 -42.74 10.2545
      vertex 63.88 -42.74 -10.2545
    endloop
  endfacet
  facet normal 0 0 -1
    outer loop
      vertex 63.88 -42.74 -10.2545
      vertex 58.88 -37.74 -10.2545
      vertex 63.88 42.74 -10.2545
    endloop
  endfacet
  facet normal 0 0 -1
    outer loop
      vertex 63.88 -42.74 -10.2545
      vertex -58.88 -37.74 -10.2545
      vertex 58.88 -37.74 -10.2545
    endloop
  endfacet
  facet normal -0 0 -1
    outer loop
      vertex -58.88 -37.74 -10.2545
      vertex -63.88 -42.74 -10.2545
      vertex -58.88 37.74 -10.2545
    endloop
  endfacet
  facet normal 0 0 -1
    outer loop
      vertex -63.88 -42.74 -10.2545
      vertex -58.88 -37.74 -10.2545
      vertex 63.88 -42.74 -10.2545
    endloop
  endfacet
  facet normal 0 0 -1
    outer loop
      vertex 58.88 37.74 -10.2545
      vertex 63.88 42.74 -10.2545
      vertex 58.88 -37.74 -10.2545
    endloop
  endfacet
  facet normal 0 0 -1
    outer loop
      vertex -58.88 37.74 -10.2545
      vertex 63.88 42.74 -10.2545
      vertex 58.88 37.74 -10.2545
    endloop
  endfacet
  facet normal 0 0 -1
    outer loop
      vertex -58.88 37.74 -10.2545
      vertex -63.88 42.74 -10.2545
      vertex 63.88 42.74 -10.2545
    endloop
  endfacet
  facet normal 0 0 -1
    outer loop
      vertex -63.88 42.74 -10.2545
      vertex -58.88 37.74 -10.2545
      vertex -63.88 -42.74 -10.2545
    endloop
  endfacet
  facet normal 0 -1 0
    outer loop
      vertex -63.88 -42.74 -10.2545
      vertex 63.88 -42.74 10.2545
      vertex -63.88 -42.74 10.2545
    endloop
  endfacet
  facet normal 0 -1 -0
    outer loop
      vertex 63.88 -42.74 10.2545
      vertex -63.88 -42.74 -10.2545
      vertex 63.88 -42.74 -10.2545
    endloop
  endfacet
  facet normal 0 1 -0
    outer loop
      vertex 63.88 42.74 -10.2545
      vertex -63.88 42.74 10.2545
      vertex 63.88 42.74 10.2545
    endloop
  endfacet
  facet normal 0 1 0
    outer loop
      vertex -63.88 42.74 10.2545
      vertex 63.88 42.74 -10.2545
      vertex -63.88 42.74 -10.2545
    endloop
  endfacet
  facet normal 1 -0 0
    outer loop
      vertex -58.88 -37.74 7.2545
      vertex -58.88 37.74 -10.2545
      vertex -58.88 37.74 7.2545
    endloop
  endfacet
  facet normal 1 0 0
    outer loop
      vertex -58.88 37.74 -10.2545
      vertex -58.88 -37.74 7.2545
      vertex -58.88 -37.74 -10.2545
    endloop
  endfacet
  facet normal -1 0 0
    outer loop
      vertex 58.88 -37.74 -10.2545
      vertex 58.88 37.74 7.2545
      vertex 58.88 37.74 -10.2545
    endloop
  endfacet
  facet normal -1 -0 0
    outer loop
      vertex 58.88 37.74 7.2545
      vertex 58.88 -37.74 -10.2545
      vertex 58.88 -37.74 7.2545
    endloop
  endfacet
  facet normal 0 -1 0
    outer loop
      vertex -58.88 37.74 -10.2545
      vertex 58.88 37.74 7.2545
      vertex -58.88 37.74 7.2545
    endloop
  endfacet
  facet normal 0 -1 -0
    outer loop
      vertex 58.88 37.74 7.2545
      vertex -58.88 37.74 -10.2545
      vertex 58.88 37.74 -10.2545
    endloop
  endfacet
  facet normal 0 1 -0
    outer loop
      vertex 58.88 -37.74 -10.2545
      vertex -58.88 -37.74 7.2545
      vertex 58.88 -37.74 7.2545
    endloop
  endfacet
  facet normal 0 1 0
    outer loop
      vertex -58.88 -37.74 7.2545
      vertex 58.88 -37.74 -10.2545
      vertex -58.88 -37.74 -10.2545
    endloop
  endfacet
  facet normal 1 -0 0
    outer loop
      vertex -61.505 -40.365 10.2545
      vertex -61.505 40.365 7.2545
      vertex -61.505 40.365 10.2545
    endloop
  endfacet
  facet normal 1 0 0
    outer loop
      vertex -61.505 40.365 7.2545
      vertex -61.505 -40.365 10.2545
      vertex -61.505 -40.365 7.2545
    endloop
  endfacet
  facet normal -1 0 0
    outer loop
      vertex 61.505 -40.365 7.2545
      vertex 61.505 40.365 10.2545
      vertex 61.505 40.365 7.2545
    endloop
  endfacet
  facet normal -1 -0 0
    outer loop
      vertex 61.505 40.365 10.2545
      vertex 61.505 -40.365 7.2545
      vertex 61.505 -40.365 10.2545
    endloop
  endfacet
  facet normal 0 0 1
    outer loop
      vertex 61.505 40.365 7.2545
      vertex 58.88 37.74 7.2545
      vertex 61.505 -40.365 7.2545
    endloop
  endfacet
  facet normal 0 0 1
    outer loop
      vertex 61.505 40.365 7.2545
      vertex -58.88 37.74 7.2545
      vertex 58.88 37.74 7.2545
    endloop
  endfacet
  facet normal 0 0 1
    outer loop
      vertex -58.88 37.74 7.2545
      vertex -61.505 40.365 7.2545
      vertex -58.88 -37.74 7.2545
    endloop
  endfacet
  facet normal -0 0 1
    outer loop
      vertex -61.505 40.365 7.2545
      vertex -58.88 37.74 7.2545
      vertex 61.505 40.365 7.2545
    endloop
  endfacet
  facet normal -0 0 1
    outer loop
      vertex 58.88 -37.74 7.2545
      vertex 61.505 -40.365 7.2545
      vertex 58.88 37.74 7.2545
    endloop
  endfacet
  facet normal -0 0 1
    outer loop
      vertex -58.88 -37.74 7.2545
      vertex 61.505 -40.365 7.2545
      vertex 58.88 -37.74 7.2545
    endloop
  endfacet
  facet normal 0 0 1
    outer loop
      vertex -58.88 -37.74 7.2545
      vertex -61.505 -40.365 7.2545
      vertex 61.505 -40.365 7.2545
    endloop
  endfacet
  facet normal 0 0 1
    outer loop
      vertex -61.505 -40.365 7.2545
      vertex -58.88 -37.74 7.2545
      vertex -61.505 40.365 7.2545
    endloop
  endfacet
  facet normal 0 1 -0
    outer loop
      vertex 61.505 -40.365 7.2545
      vertex -61.505 -40.365 10.2545
      vertex 61.505 -40.365 10.2545
    endloop
  endfacet
  facet normal 0 1 0
    outer loop
      vertex -61.505 -40.365 10.2545
      vertex 61.505 -40.365 7.2545
      vertex -61.505 -40.365 7.2545
    endloop
  endfacet
  facet normal 0 -1 0
    outer loop
      vertex -61.505 40.365 7.2545
      vertex 61.505 40.365 10.2545
      vertex -61.505 40.365 10.2545
    endloop
  endfacet
  facet normal 0 -1 -0
    outer loop
      vertex 61.505 40.365 10.2545
      vertex -61.505 40.365 7.2545
      vertex 61.505 40.365 7.2545
    endloop
  endfacet
endsolid OpenSCAD_Model
